<svg xmlns="http://www.w3.org/2000/svg" viewBox="0 0 694.2 174.5" width="694" height="175">
  <title>Roboteria</title>
  <g transform="translate(14.00,34.91) scale(1.7987) translate(-3,-20)"><rect x="3" y="37" width="11" height="11" rx="2" fill="#1A1A1A"></rect><rect x="20" y="20" width="11" height="11" rx="2" fill="#1A1A1A"></rect><rect x="37" y="37" width="11" height="11" rx="2" fill="#1A1A1A"></rect><rect x="54" y="20" width="11" height="11" rx="2" fill="#1A1A1A"></rect><rect x="71" y="37" width="11" height="11" rx="2" fill="#1A1A1A"></rect><rect x="3" y="71" width="11" height="11" rx="2" fill="#1A1A1A"></rect><rect x="20" y="54" width="11" height="11" rx="2" fill="#1A1A1A"></rect><rect x="37" y="71" width="11" height="11" rx="2" fill="#1A1A1A"></rect><rect x="54" y="54" width="11" height="11" rx="2" fill="#1A1A1A"></rect><rect x="71" y="71" width="11" height="11" rx="2" fill="#1A1A1A"></rect></g>
  <g transform="translate(190.10,125.52)"><path d="M43.6 0.0 27.6 -27.8H18.900000000000002V0.0H7.5V-69.5H31.5Q39.5 -69.5 45.05 -66.7Q50.6 -63.900000000000006 53.35 -59.2Q56.1 -54.5 56.1 -48.7Q56.1 -41.900000000000006 52.150000000000006 -36.35Q48.2 -30.8 40.0 -28.8L57.2 0.0ZM18.900000000000002 -36.9H31.5Q37.9 -36.9 41.150000000000006 -40.1Q44.400000000000006 -43.300000000000004 44.400000000000006 -48.7Q44.400000000000006 -54.1 41.2 -57.150000000000006Q38.0 -60.2 31.5 -60.2H18.900000000000002Z M67.0 -27.6Q67.0 -36.0 70.7 -42.5Q74.4 -49.0 80.80000000000001 -52.5Q87.2 -56.0 95.10000000000001 -56.0Q103.0 -56.0 109.4 -52.5Q115.80000000000001 -49.0 119.5 -42.5Q123.2 -36.0 123.2 -27.6Q123.2 -19.200000000000003 119.4 -12.700000000000001Q115.60000000000001 -6.2 109.05000000000001 -2.65Q102.5 0.9 94.60000000000001 0.9Q86.80000000000001 0.9 80.5 -2.65Q74.2 -6.2 70.6 -12.65Q67.0 -19.1 67.0 -27.6ZM111.5 -27.6Q111.5 -33.6 109.2 -37.75Q106.9 -41.900000000000006 103.10000000000001 -44.0Q99.30000000000001 -46.1 94.9 -46.1Q90.5 -46.1 86.75 -44.0Q83.0 -41.900000000000006 80.80000000000001 -37.75Q78.60000000000001 -33.6 78.60000000000001 -27.6Q78.60000000000001 -18.7 83.15 -13.85Q87.7 -9.0 94.60000000000001 -9.0Q99.0 -9.0 102.85 -11.100000000000001Q106.7 -13.200000000000001 109.1 -17.400000000000002Q111.5 -21.6 111.5 -27.6Z M165.1 -56.0Q172.4 -56.0 178.3 -52.5Q184.2 -49.0 187.6 -42.55Q191.0 -36.1 191.0 -27.8Q191.0 -19.5 187.6 -12.95Q184.2 -6.4 178.25 -2.75Q172.3 0.9 165.1 0.9Q158.7 0.9 153.75 -1.6000000000000003Q148.8 -4.1000000000000005 145.9 -8.0V0.0H134.5V-74.0H145.9V-46.900000000000006Q148.8 -50.900000000000006 153.85000000000002 -53.45Q158.9 -56.0 165.1 -56.0ZM162.6 -46.1Q158.3 -46.1 154.45 -43.900000000000006Q150.6 -41.7 148.25 -37.5Q145.9 -33.300000000000004 145.9 -27.6Q145.9 -21.900000000000002 148.25 -17.650000000000002Q150.6 -13.4 154.45 -11.2Q158.3 -9.0 162.6 -9.0Q167.0 -9.0 170.85 -11.25Q174.7 -13.5 177.05 -17.8Q179.4 -22.1 179.4 -27.8Q179.4 -33.5 177.05 -37.650000000000006Q174.7 -41.800000000000004 170.85 -43.95Q167.0 -46.1 162.6 -46.1Z M198.60000000000002 -27.6Q198.60000000000002 -36.0 202.3 -42.5Q206.0 -49.0 212.4 -52.5Q218.8 -56.0 226.70000000000002 -56.0Q234.60000000000002 -56.0 241.0 -52.5Q247.4 -49.0 251.10000000000002 -42.5Q254.8 -36.0 254.8 -27.6Q254.8 -19.200000000000003 251.0 -12.700000000000001Q247.20000000000002 -6.2 240.65000000000003 -2.65Q234.10000000000002 0.9 226.20000000000002 0.9Q218.4 0.9 212.10000000000002 -2.65Q205.8 -6.2 202.20000000000002 -12.65Q198.60000000000002 -19.1 198.60000000000002 -27.6ZM243.10000000000002 -27.6Q243.10000000000002 -33.6 240.8 -37.75Q238.5 -41.900000000000006 234.7 -44.0Q230.9 -46.1 226.5 -46.1Q222.10000000000002 -46.1 218.35000000000002 -44.0Q214.60000000000002 -41.900000000000006 212.40000000000003 -37.75Q210.20000000000002 -33.6 210.20000000000002 -27.6Q210.20000000000002 -18.7 214.75 -13.85Q219.3 -9.0 226.20000000000002 -9.0Q230.60000000000002 -9.0 234.45000000000002 -11.100000000000001Q238.3 -13.200000000000001 240.70000000000002 -17.400000000000002Q243.10000000000002 -21.6 243.10000000000002 -27.6Z M279.40000000000003 -45.800000000000004V-15.3Q279.40000000000003 -12.200000000000001 280.85 -10.850000000000001Q282.3 -9.5 285.8 -9.5H292.8V0.0H283.8Q276.1 0.0 272.0 -3.6Q267.90000000000003 -7.2 267.90000000000003 -15.3V-45.800000000000004H261.40000000000003V-55.1H267.90000000000003V-68.8H279.40000000000003V-55.1H292.8V-45.800000000000004Z M353.40000000000003 -23.3H311.3Q311.8 -16.7 316.20000000000005 -12.7Q320.6 -8.700000000000001 327.0 -8.700000000000001Q336.20000000000005 -8.700000000000001 340.0 -16.400000000000002H352.3Q349.8 -8.8 343.25 -3.95Q336.70000000000005 0.9 327.0 0.9Q319.1 0.9 312.85 -2.65Q306.6 -6.2 303.05 -12.65Q299.5 -19.1 299.5 -27.6Q299.5 -36.1 302.95000000000005 -42.55Q306.40000000000003 -49.0 312.65000000000003 -52.5Q318.90000000000003 -56.0 327.0 -56.0Q334.8 -56.0 340.9 -52.6Q347.0 -49.2 350.4 -43.05Q353.8 -36.9 353.8 -28.900000000000002Q353.8 -25.8 353.40000000000003 -23.3ZM341.90000000000003 -32.5Q341.8 -38.800000000000004 337.4 -42.60000000000001Q333.0 -46.400000000000006 326.5 -46.400000000000006Q320.6 -46.400000000000006 316.4 -42.650000000000006Q312.2 -38.900000000000006 311.40000000000003 -32.5Z M392.9 -56.0V-44.2H390.0Q383.3 -44.2 379.85 -40.8Q376.4 -37.4 376.4 -29.0V0.0H365.0V-55.1H376.4V-47.1Q378.9 -51.300000000000004 383.04999999999995 -53.650000000000006Q387.2 -56.0 392.9 -56.0Z M401.90000000000003 -69.7Q401.90000000000003 -72.8 404.0 -74.9Q406.1 -77.0 409.20000000000005 -77.0Q412.20000000000005 -77.0 414.30000000000007 -74.9Q416.40000000000003 -72.8 416.40000000000003 -69.7Q416.40000000000003 -66.60000000000001 414.30000000000007 -64.5Q412.20000000000005 -62.400000000000006 409.20000000000005 -62.400000000000006Q406.1 -62.400000000000006 404.0 -64.5Q401.90000000000003 -66.60000000000001 401.90000000000003 -69.7ZM414.8 -55.1V0.0H403.40000000000003V-55.1Z M452.0 -56.0Q458.5 -56.0 463.35 -53.45Q468.20000000000005 -50.900000000000006 471.1 -47.1V-55.1H482.6V0.0H471.1V-8.200000000000001Q468.20000000000005 -4.3 463.20000000000005 -1.7Q458.2 0.9 451.8 0.9Q444.7 0.9 438.8 -2.75Q432.90000000000003 -6.4 429.45000000000005 -12.95Q426.0 -19.5 426.0 -27.8Q426.0 -36.1 429.45000000000005 -42.5Q432.90000000000003 -48.900000000000006 438.85 -52.45Q444.8 -56.0 452.0 -56.0ZM454.40000000000003 -46.1Q450.0 -46.1 446.20000000000005 -43.95Q442.40000000000003 -41.800000000000004 440.05 -37.650000000000006Q437.7 -33.5 437.7 -27.8Q437.7 -22.1 440.05 -17.8Q442.40000000000003 -13.5 446.25 -11.25Q450.1 -9.0 454.40000000000003 -9.0Q458.8 -9.0 462.6 -11.2Q466.40000000000003 -13.4 468.75 -17.650000000000002Q471.1 -21.900000000000002 471.1 -27.6Q471.1 -33.300000000000004 468.75 -37.5Q466.40000000000003 -41.7 462.6 -43.900000000000006Q458.8 -46.1 454.40000000000003 -46.1Z" fill="#1A1A1A"></path></g>
</svg>
